<svg width="70" height="71" viewBox="0 0 70 71" fill="none" xmlns="http://www.w3.org/2000/svg">
<path d="M23.3327 20.9167H17.4993C15.9523 20.9167 14.4685 21.5312 13.3746 22.6252C12.2806 23.7192 11.666 25.2029 11.666 26.75V55.9167C11.666 57.4638 12.2806 58.9475 13.3746 60.0415C14.4685 61.1354 15.9523 61.75 17.4993 61.75H40.8327C42.3798 61.75 43.8635 61.1354 44.9575 60.0415C46.0514 58.9475 46.666 57.4638 46.666 55.9167V50.0833M23.3327 20.9167V44.25C23.3327 45.7971 23.9473 47.2808 25.0412 48.3748C26.1352 49.4688 27.6189 50.0833 29.166 50.0833H46.666L23.3327 20.9167ZM23.3327 20.9167V15.0833C23.3327 13.5362 23.9473 12.0525 25.0412 10.9585C26.1352 9.86458 27.6189 9.25 29.166 9.25H42.5418C43.3153 9.25017 44.0571 9.55756 44.6039 10.1046L57.4781 22.9787C58.0251 23.5256 58.3325 24.2673 58.3327 25.0408V44.25C58.3327 45.7971 57.7181 47.2808 56.6241 48.3748C55.5302 49.4688 54.0464 50.0833 52.4993 50.0833H46.666L23.3327 20.9167Z" stroke="#191919" stroke-width="6" stroke-linecap="round" stroke-linejoin="round"/>
</svg>
