<svg width="40" height="49" viewBox="0 0 40 49" fill="none" xmlns="http://www.w3.org/2000/svg">
<path d="M35.7219 17.5288H34.7456V11.8508C34.7448 11.8147 34.7419 11.7787 34.737 11.7431C34.7383 11.515 34.6707 11.2941 34.5469 11.1217L26.7104 0.329814L26.7046 0.322871C26.6577 0.261757 26.6044 0.208093 26.5462 0.163171L26.4944 0.124982C26.4446 0.0916148 26.392 0.0648422 26.3374 0.0451317L26.2942 0.0277735C26.2344 0.00979167 26.173 0.000468353 26.1114 0H6.84848C5.96864 0 5.2544 0.862725 5.2544 1.9216V17.527H4.27808C3.01952 17.527 2 18.756 2 20.2732V34.5559C2 36.0713 3.02096 37.302 4.27808 37.302H5.2544V47.0784C5.2544 48.1373 5.96864 49 6.84848 49H33.1515C34.0299 49 34.7456 48.1373 34.7456 47.0784V37.302H35.7219C36.979 37.302 38 36.073 38 34.5559V20.2732C38 18.7578 36.9805 17.5288 35.7219 17.5288ZM6.84848 1.9216H25.3136V11.7535C25.3136 12.2847 25.6707 12.7135 26.1114 12.7135H33.153V17.527H6.84848V1.9216V1.9216ZM18.7746 28.2512C16.8392 27.418 15.5619 26.1265 15.5619 24.0869C15.5619 21.6931 17.2381 19.8826 19.9669 19.8826C21.2974 19.8826 22.2464 20.1951 22.9376 20.5891L22.3501 23.1287C21.5971 22.6866 20.7699 22.4591 19.9323 22.4638C18.7918 22.4638 18.2389 23.1078 18.2389 23.8161C18.2389 24.7118 18.8768 25.1058 20.3974 25.7932C22.4538 26.7098 23.4027 27.9995 23.4027 29.9784C23.4027 32.3322 21.9181 34.3302 18.7227 34.3302C17.3922 34.3302 16.0803 33.8928 15.4237 33.4553L15.9594 30.8533C16.8636 31.4098 17.8616 31.7091 18.8768 31.7281C20.0864 31.7281 20.7258 31.1223 20.7258 30.2075C20.7258 29.3327 20.1742 28.8345 18.7746 28.2512V28.2512ZM5.05712 27.293C5.05712 22.5246 7.8896 19.8809 11.4118 19.8809C12.777 19.8809 13.8123 20.2124 14.2789 20.4849L13.7259 23.0037C13.0264 22.6496 12.2741 22.4724 11.5155 22.4829C9.44336 22.4829 7.82048 24.0018 7.82048 27.1246C7.82048 29.9142 9.20144 31.6847 11.5328 31.6847C12.345 31.6847 13.209 31.499 13.7432 31.2265L14.1248 33.7244C13.6582 33.9934 12.5523 34.3285 11.1541 34.3285C7.12928 34.3302 5.05712 31.2907 5.05712 27.293V27.293ZM33.1515 46.5611H6.84848V37.3037H33.1515V46.5611V46.5611ZM31.0232 34.1219H27.9488L24.2192 20.0892H27.1035L28.519 26.0241C28.915 27.7096 29.2779 29.2927 29.5544 31.0407H29.6062C29.9007 29.3727 30.2519 27.7199 30.6589 26.0866L32.145 20.0909H34.9414L31.0232 34.1219V34.1219Z" fill="#3FAA49"/>
</svg>
