<svg width="81" height="80" viewBox="0 0 81 80" fill="none" xmlns="http://www.w3.org/2000/svg">
<path d="M62.386 5.44L57.486 0H18.898C16.114 0 15.038 2.064 15.038 3.676V18.196H20.45V6.612C20.45 5.996 20.97 5.476 21.57 5.476H49.182C49.79 5.476 50.094 5.584 50.094 6.084V25.364H69.746C70.518 25.364 70.818 25.764 70.818 26.348V73.428C70.818 74.412 70.418 74.56 69.818 74.56H21.57C21.2725 74.5528 20.9894 74.4303 20.7804 74.2183C20.5715 74.0064 20.453 73.7216 20.45 73.424V69.12H15.074V75.9C15.002 78.3 16.282 80 18.898 80H72.49C75.29 80 76.246 77.972 76.246 76.124V20.748L74.846 19.228L62.382 5.444L62.386 5.44ZM55.594 6.08L57.142 7.816L67.526 19.228L68.098 19.92H57.486C56.686 19.92 56.178 19.788 55.966 19.52C55.754 19.26 55.63 18.84 55.594 18.268V6.08ZM51.234 42.668H69.542V48.004H51.23V42.668H51.234ZM51.234 32.004H69.542V37.336H51.23V32L51.234 32.004ZM51.234 53.336H69.542V58.672H51.23V53.336H51.234ZM4.25 22.504V65.172H46.11V22.504H4.25ZM25.182 47.32L22.622 51.232H25.182V56H12.314L21.65 41.96L13.378 29.336H20.29L25.186 36.68L30.078 29.336H36.986L28.698 41.96L38.046 56H30.874L25.182 47.32Z" fill="#3FAA49"/>
</svg>
